<?xml version="1.0" standalone="no"?>
<!DOCTYPE svg PUBLIC "-//W3C//DTD SVG 20010904//EN"
 "http://www.w3.org/TR/2001/REC-SVG-20010904/DTD/svg10.dtd">
<svg version="1.0" xmlns="http://www.w3.org/2000/svg"
 width="16.000000pt" height="16.000000pt" viewBox="0 0 16.000000 16.000000"
 preserveAspectRatio="xMidYMid meet">
<metadata>
Created by potrace 1.11, written by Peter Selinger 2001-2013
</metadata>
<g transform="translate(0.000000,16.000000) scale(0.006154,-0.006154)"
fill="#000000" stroke="none">
<path d="M0 1300 l0 -1300 1300 0 1300 0 0 1300 0 1300 -1300 0 -1300 0 0
-1300z m662 531 l-62 -59 2 -468 3 -469 23 -3 22 -3 0 468 0 469 45 44 c57 56
73 44 17 -13 l-42 -43 0 -463 0 -464 93 5 c162 9 231 61 272 203 l17 57 38
-95 c39 -97 76 -164 113 -204 l20 -23 -454 0 -454 1 50 44 c28 25 53 45 58 45
4 0 7 208 6 463 l-1 462 -59 53 -59 52 208 0 207 -1 -63 -58z m1234 48 c104
-14 173 -41 228 -91 57 -50 86 -104 93 -174 11 -105 -38 -211 -122 -260 -72
-42 -138 -55 -317 -61 l-168 -6 0 -211 0 -211 52 -42 c57 -46 77 -49 35 -5
l-27 28 0 200 0 199 148 0 c152 0 224 11 294 46 97 49 146 126 155 243 7 87
-7 139 -52 207 -30 43 -32 49 -13 37 13 -8 37 -41 53 -73 27 -53 30 -68 30
-149 0 -74 -4 -101 -23 -141 -61 -133 -166 -180 -429 -192 l-143 -6 0 -179 0
-180 67 -76 67 -77 -214 -3 c-136 -1 -217 1 -224 8 -7 7 53 10 187 10 108 0
197 4 197 8 0 5 -9 17 -19 26 -17 16 -43 17 -226 16 l-208 -1 62 51 61 52 0
175 0 176 -47 -6 c-27 -4 -58 -9 -70 -13 -13 -3 -23 -2 -23 3 0 14 46 33 97
40 38 5 44 9 41 27 -3 18 -9 21 -55 20 -34 -1 -64 -9 -87 -24 -51 -31 -48 -3
4 43 30 28 51 38 90 43 l50 7 0 210 0 211 -52 53 -52 53 241 0 c133 0 276 -5
319 -11z m-710 -912 c20 -40 54 -98 76 -131 l40 -59 -18 -38 -17 -39 -458 0
c-294 0 -460 4 -464 10 -4 7 149 10 453 10 l459 0 11 26 c11 22 8 31 -28 84
-46 68 -110 189 -110 208 0 26 21 -1 56 -71z"/>
<path d="M1610 1581 l0 -221 30 0 30 0 0 201 0 202 113 -5 c89 -3 121 -8 147
-24 18 -10 35 -25 38 -32 2 -7 -12 -3 -33 10 -30 17 -58 22 -141 26 l-104 5 0
-193 0 -193 75 7 c146 13 220 52 250 131 34 87 3 206 -65 252 -50 35 -94 45
-222 50 l-118 5 0 -221z"/>
</g>
</svg>
